#!OML:ASF F:\VICON\USERDATA\INSTALL\rory3\rory3.ASF
:FULLY-SPECIFIED
:DEGREES
28
root 0.44071877580916535 17.88816897755171 2.9299347078733966 -2.1405041789809944 -1.8082246280753163 -0.652436212703777
lfemur -7.456083638130792 -1.0182730455507945 -23.288944193074585
ltibia 20.013728115849496
lfoot 6.2498420689260925 -6.150503969511867
ltoes -4.096806215704692
rfemur -20.167441367922905 0.6861318110014989 21.610482315619354
rtibia 38.79856603096616
rfoot -18.144329302858473 -10.329229658683392
rtoes -8.722666181603639
lowerback 11.314407448047355 -0.11329562208815452 -1.5650422073369918
upperback 0.15629521913228944 -0.21169155461493444 1.4505038115555497
thorax -6.125124305563905 -0.002390083702252327 1.7137818421792428
lowerneck -16.407538576729017 -3.7618105384175053 -1.5518931175546875
upperneck 20.780661306641516 -5.302576341251474 1.860747197969731
head 9.278465385241153 -2.3997447807305208 0.16463758331200962
lclavicle -1.3551357802513237e-15 7.266333515615653e-16
lhumerus -36.90113572415686 10.257584555028068 82.03205301699606
lradius 23.797960888530085
lwrist 10.621535645879417
lhand -29.995696296779723 18.21559997189948
lfingers 7.125019999999999
lthumb -2.9631752068345434 48.95850244303061
rclavicle -1.3551357800751602e-15 7.266333516675315e-16
rhumerus -23.933759028323244 -13.789773953625826 -73.41867146825675
rradius 33.057718306166485
rwrist 4.437728937784181
rhand -18.205843248768275 23.344415939167675
rfingers 7.125019999999999
rthumb 8.04263125556435 -5.9984720310445985
29
root 0.4285525135276382 17.879402511524052 2.9616738216238225 -2.2580468671376437 -1.9786514624882778 -0.3705378361787348
lfemur -4.830256571463066 -1.0525688719804158 -23.43294752693783
ltibia 17.82159200294688
lfoot 7.015529805371189 -8.37616790166346
ltoes -2.7128428758533847
rfemur -20.88209317375484 1.102188091739607 22.001330304975507
rtibia 37.38534664318336
rfoot -17.84698255430691 -10.312863749524833
rtoes -8.389794431698292
lowerback 11.228949767062467 -0.13887591878226818 -1.8361951432235457
upperback 0.08538711840484559 -0.356974835272949 1.4087885280764953
thorax -6.13973376361434 -0.08827096230878945 2.0509394291883805
lowerneck -16.37062280504033 -3.741061055068154 -1.6109772046885156
upperneck 20.931960904251245 -5.304763371055116 1.9752926769030565
head 9.389999643819442 -2.3984966137239896 0.18904382793771574
lclavicle -1.3551357802725995e-15 7.266333515487637e-16
lhumerus -36.17415300401581 9.82616337000747 81.89292054694194
lradius 24.185836648283928
lwrist 10.641796213567899
lhand -30.336472642185317 18.500085566149163
lfingers 7.125019999999999
lthumb -3.4629585495141586 49.05460861420167
rclavicle -1.3551357800708333e-15 7.266333516702496e-16
rhumerus -24.211062708750116 -13.559867693866423 -73.81793021442823
rradius 32.91443477949863
rwrist 4.687933783332885
rhand -18.27515213712634 22.93270749970868
rfingers 7.125019999999999
rthumb 8.0491463026152 -6.251597111507062
30
root 0.4170287929642464 17.875700397400696 2.8019862331859144 -2.234847736383173 -2.5159179454164042 -0.9473443663222652
lfemur -3.086666120183998 -1.1468032983187744 -23.174255504852294
ltibia 16.321206937633477
lfoot 5.6433533429100695 -11.313580787523737
ltoes -3.724871302000093
rfemur -21.007060595149202 1.9571285054848069 23.17953944066314
rtibia 36.12643482236816
rfoot -17.258232198678105 -10.496152001494973
rtoes -8.711591025455004
lowerback 11.191922758134575 -0.03384912091937514 -1.5986029504585921
upperback 0.06109396685760257 -0.22460529930276546 1.4937846409484485
thorax -6.106073932320857 -0.058105064233687886 2.1245615689579838
lowerneck -16.449093983320186 -3.732419118487368 -1.6258982458700837
upperneck 21.041877904518678 -5.329550766601752 2.1180616781378827
head 9.42000741104338 -2.3962656853175486 0.23962169060272803
lclavicle -1.3551357802876798e-15 7.266333515401196e-16
lhumerus -35.30446714178839 9.293007674679055 81.61042941090615
lradius 24.403884289536222
lwrist 10.46399431107696
lhand -30.618131088566308 19.308613190904236
lfingers 7.125019999999999
lthumb -3.9113197426512616 49.670727734653994
rclavicle -1.355135780064749e-15 7.266333516742711e-16
rhumerus -24.475659737214485 -13.158168196201462 -74.65798257980647
rradius 32.244709761768185
rwrist 4.68676828463243
rhand -18.13627693555546 23.214202001544265
rfingers 7.125019999999999
rthumb 8.152527033529926 -6.4146823405641795
31
root 0.41439266142686126 17.873988049295992 3.040289665704689 -2.190767575146459 -3.0729319377816338 -1.9209414816044208
lfemur -1.5929549001772987 -0.9663420092271686 -21.56341853497101
ltibia 16.32987783027964
lfoot 1.6717061544419654 -12.773759377495077
ltoes -5.2948797495410895
rfemur -20.563567262884575 2.95756978011043 24.71947485432645
rtibia 34.946072819017914
rfoot -16.89953381988498 -10.92358431255014
rtoes -9.074885143814836
lowerback 11.190523987859756 0.07184853444523524 -1.0332556304739975
upperback -0.022305314076516827 -0.08331642986650639 1.6031275037561574
thorax -6.1560577437100035 0.007321548407538847 2.1548455741510057
lowerneck -16.45780548828395 -3.7126351523986445 -1.6164970682402309
upperneck 21.178131406517558 -5.298226735482924 2.1832715316723315
head 9.469196312432812 -2.3778104978151777 0.2952665018365504
lclavicle -1.3551357802890904e-15 7.266333515395726e-16
lhumerus -34.331618572979295 8.501677915117305 81.39494833102442
lradius 24.4995417027061
lwrist 10.220976981294818
lhand -30.995682261420104 19.350500270071304
lfingers 7.125019999999999
lthumb -4.325126832516413 49.72054029584598
rclavicle -1.3551357800677846e-15 7.266333516727182e-16
rhumerus -24.654898125074208 -12.736762479383932 -75.64246417049415
rradius 30.956603674588447
rwrist 4.518547346702213
rhand -18.161486203837523 23.19910652592465
rfingers 7.125019999999999
rthumb 8.017468309359296 -6.58812019632907
32
root 0.4002222511082588 17.88172455385852 2.8626687869414367 -1.960043272558822 -3.448935496080201 -3.450200353123626
lfemur -0.5810535994877304 -0.7528339004582578 -19.691529344126977
ltibia 18.159770820520222
lfoot -4.2947312364384205 -11.687911747646089
ltoes -3.467320188717407
rfemur -19.703433653286975 3.9380150062531416 26.618107557537126
rtibia 33.2617635874808
rfoot -15.722936488865521 -11.098821426991897
rtoes -10.142764114091019
lowerback 11.2360008737129 0.17729411486725705 0.03154746034815348
upperback -0.08299093859531549 0.17704356290124157 1.7706265822883813
thorax -6.186378550371794 0.1421420652226304 2.1232766703591457
lowerneck -16.446583349892826 -3.6981841549879464 -1.6044534987734758
upperneck 21.224648064260478 -5.284799688610579 2.1509167404265996
head 9.480866743006397 -2.367460301514383 0.2959739825801062
lclavicle -1.3551357802937844e-15 7.266333515372245e-16
lhumerus -33.27119755745081 7.443221277501859 81.15319012376405
lradius 24.545701376665864
lwrist 10.037930987963342
lhand -30.79268278652544 19.99844154202476
lfingers 7.125019999999999
lthumb -4.14896474420307 50.28124572660677
rclavicle -1.3551357800527248e-15 7.266333516821543e-16
rhumerus -24.82731244037645 -12.521008049648266 -76.67666716558709
rradius 29.245254253958745
rwrist 4.821938928440472
rhand -18.079439879958098 22.46549251225553
rfingers 7.125019999999999
rthumb 8.14720168011141 -7.136455653052167
33
root 0.39102145062157706 17.89671072596909 3.309203083390826 -1.7851465138815676 -3.6288739111030583 -4.518654922621416
lfemur -0.12563399002824394 -0.5759982915470312 -18.210289094247262
ltibia 20.620045934499707
lfoot -9.43240431349324 -8.08066257575361
ltoes -3.46068039753522
rfemur -18.75000478853106 4.5371618177706345 27.99791240575765
rtibia 31.12126663024097
rfoot -14.883373091046067 -11.264237001141662
rtoes -10.026618699480544
lowerback 11.300583600785998 0.2826391227512287 0.8227440025818696
upperback -0.05011969732481307 0.6070748995417805 2.017907834016047
thorax -6.1634570110167095 0.3731539563341668 1.907410745351524
lowerneck -16.56616457799928 -3.694975803540869 -1.6017927692479197
upperneck 21.270703602665932 -5.264780125918204 2.104391395185166
head 9.5295582372335 -2.3561112573786462 0.27733310212115136
lclavicle -1.3551357803070179e-15 7.266333515295096e-16
lhumerus -32.09883940231565 6.475952831684502 80.80787726557013
lradius 24.607380056702137
lwrist 10.03426411720907
lhand -30.303379879183854 19.793415601438642
lfingers 7.125019999999999
lthumb -3.4849715499131086 50.64102775115391
rclavicle -1.3551357800617226e-15 7.266333516770189e-16
rhumerus -25.104240063173858 -12.878860785372877 -77.52669325157784
rradius 27.508930503192136
rwrist 5.644627087981421
rhand -17.872535113079596 22.211220250848783
rfingers 7.125019999999999
rthumb 8.129867813410893 -7.827954454198903
34
root 0.39247818955841374 17.897110947604432 3.9386705673917923 -2.159206576977279 -4.151552098645414 -3.757581251549043
lfemur 0.637208651469332 -0.43705965140451974 -18.623576692324463
ltibia 23.25250231738304
lfoot -12.662556692799333 -3.540922654992256
ltoes -4.788838343735128
rfemur -18.064760313179015 4.73639886618462 27.852992622491858
rtibia 29.26250948798478
rfoot -13.264505158168356 -11.041920969673932
rtoes -8.796224754977157
lowerback 11.381796910595714 0.43538225459017305 0.25624739677762387
upperback 0.026102586975794387 0.7182830537162903 2.000076298143305
thorax -6.144293454438861 0.4429946186548318 1.8358928170882474
lowerneck -16.61898917094207 -3.687538691856865 -1.6212262395856558
upperneck 21.236518495058007 -5.21747331439121 2.1455302355843116
head 9.543795602987755 -2.329115519732345 0.3111206905734966
lclavicle -1.3551357803046276e-15 7.266333515314689e-16
lhumerus -31.01035055154153 4.998581556142971 80.57096392819432
lradius 24.829594123496197
lwrist 10.080720107093793
lhand -30.025947019406125 19.273595978184066
lfingers 7.125019999999999
lthumb -3.2895027632887137 49.85325036852493
rclavicle -1.355135780055423e-15 7.26633351681299e-16
rhumerus -25.77948946271882 -13.960343016877678 -78.1115012568933
rradius 25.618250611530332
rwrist 6.899464830204755
rhand -17.837884208579364 22.191006597983602
rfingers 7.125019999999999
rthumb 8.181972675762472 -7.898859956512884
35
root 0.4044617508096263 17.89329274940627 4.734874104950415 -2.5346308239786386 -4.3455529262966355 -2.81470002789146
lfemur 1.3642084338631628 -0.4238869816335127 -19.134401376215074
ltibia 25.865662868518445
lfoot -14.350388980959108 1.02733179175734
ltoes -8.50366918081622
rfemur -17.570897262580512 4.590808636237221 27.348254719291372
rtibia 27.948203024298678
rfoot -11.95198630180695 -10.812988930099515
rtoes -6.691127502211024
lowerback 11.37516346762445 0.4955908573528379 -0.3959183556307473
upperback 0.08221318762136498 0.6299468466574127 1.875527874259218
thorax -6.128785093652517 0.4158625844842644 1.9229743965557433
lowerneck -16.57677884838985 -3.6585047798577435 -1.6733748626520553
upperneck 21.192372329865947 -5.148783716129619 2.2408283768281105
head 9.537858149019199 -2.3001205944877205 0.37854244413790045
lclavicle -1.3551357802962058e-15 7.26633351536912e-16
lhumerus -29.822301184753897 3.4240479088995954 80.39426389109471
lradius 25.17616266432186
lwrist 9.99883074615464
lhand -30.001930226747056 19.31012603783019
lfingers 7.125019999999999
lthumb -3.2944397521736426 49.75039255820994
rclavicle -1.3551357800547343e-15 7.266333516820696e-16
rhumerus -26.95434044025219 -15.528376906876803 -78.44198846347196
rradius 23.452251914771736
rwrist 8.395862957180597
rhand -17.90671296097506 22.054295957770776
rfingers 7.125019999999999
rthumb 8.274493077285278 -7.921854906637404
